# xmcd CD database file
#
# Track frame offsets:
#	150
#	14362
#	27212
#	43397
#	56057
#	69710
#	81380
#	94575
#	103950
#	114915
#
# Disc length: 1681 seconds
#
# Revision: 3
# Processed by: cddbd v1.5.2PL0 Copyright (c) Steve Scherf et al.
# Submitted via: CDex 1.51
#
DISCID=87068f0a
DTITLE=Chet Atkins - Relaxin' With Chet
DYEAR=1985
DGENRE=Country
TTITLE0=Blues For Dr. Joe
TTITLE1=Sophisticated Lady
TTITLE2=Yesterdays
TTITLE3=Say ''Sí Sí''
TTITLE4=Vilia
TTITLE5=Martha
TTITLE6=In The Chapel In The Moonlight
TTITLE7=Czardas
TTITLE8=Nagasaki
TTITLE9=April In Portugal
EXTD=YEAR: 1985
EXTT0=
EXTT1=
EXTT2=
EXTT3=
EXTT4=
EXTT5=
EXTT6=
EXTT7=
EXTT8=
EXTT9=
PLAYORDER=
